<svg xmlns:xlink="http://www.w3.org/1999/xlink" width="24" xmlns="http://www.w3.org/2000/svg" height="24" id="screenshot-f7989f12-4bbc-801a-8001-da932bbb2c7e" viewBox="0 0 24 24" style="-webkit-print-color-adjust: exact;" fill="none" version="1.1"><g xmlns:xlink="http://www.w3.org/1999/xlink" width="24" xml:space="preserve" height="24" id="shape-f7989f12-4bbc-801a-8001-da932bbb2c7e" baseProfile="full" style="fill: rgb(0, 0, 0);" ry="0" rx="0" version="1.1" enable-background="new 0 0 24.00 24.00"><g id="shape-f7989f12-4bbc-801a-8001-da932bbf3eaf"><g id="fills-f7989f12-4bbc-801a-8001-da932bbf3eaf"><path stroke-linejoin="round" rx="0" ry="0" d="M4.244,12.253C3.475,11.485,3,10.423,3,9.25C3,6.903,4.903,5,7.25,5C8.83,5,10.208,5.862,10.941,7.141L12.059,7.141C12.792,5.862,14.17,5,15.75,5C18.097,5,20,6.903,20,9.25C20,10.423,19.525,11.485,18.756,12.253L11.5,19.509L4.244,12.253ZZM19.462,12.962C20.412,12.012,21,10.7,21,9.25C21,6.351,18.65,4,15.75,4C14.002,4,12.454,4.854,11.5,6.167C10.546,4.854,8.998,4,7.25,4C4.35,4,2,6.351,2,9.25C2,10.7,2.588,12.012,3.538,12.962L11.5,20.923L19.462,12.962ZZ" style="fill: rgb(255, 255, 255); fill-opacity: 1;"/></g><g id="strokes-f7989f12-4bbc-801a-8001-da932bbf3eaf"><g class="stroke-shape"><path stroke-linejoin="round" rx="0" ry="0" d="M4.244,12.253C3.475,11.485,3,10.423,3,9.25C3,6.903,4.903,5,7.25,5C8.83,5,10.208,5.862,10.941,7.141L12.059,7.141C12.792,5.862,14.17,5,15.75,5C18.097,5,20,6.903,20,9.25C20,10.423,19.525,11.485,18.756,12.253L11.5,19.509L4.244,12.253ZZM19.462,12.962C20.412,12.012,21,10.7,21,9.25C21,6.351,18.65,4,15.75,4C14.002,4,12.454,4.854,11.5,6.167C10.546,4.854,8.998,4,7.25,4C4.35,4,2,6.351,2,9.25C2,10.7,2.588,12.012,3.538,12.962L11.5,20.923L19.462,12.962ZZ" style="fill: none; stroke-width: 0.2;"/></g></g></g></g></svg>