<svg xmlns:xlink="http://www.w3.org/1999/xlink" width="24" xmlns="http://www.w3.org/2000/svg" height="24" id="screenshot-f7989f12-4bbc-801a-8001-da92b419758f" viewBox="0 0 24 24" style="-webkit-print-color-adjust: exact;" fill="none" version="1.1"><g xmlns:xlink="http://www.w3.org/1999/xlink" width="24" xml:space="preserve" height="24" id="shape-f7989f12-4bbc-801a-8001-da92b419758f" baseProfile="full" style="fill: rgb(0, 0, 0);" ry="0" rx="0" version="1.1" enable-background="new 0 0 24.00 24.00"><g id="shape-f7989f12-4bbc-801a-8001-da92b41e4b03"><g id="fills-f7989f12-4bbc-801a-8001-da92b41e4b03"><path stroke-linejoin="round" rx="0" ry="0" d="M16,18C17.105,18,18,18.895,18,20C18,21.105,17.105,22,16,22C14.895,22,14,21.105,14,20C14,18.895,14.895,18,16,18ZZM16,19C15.448,19,15,19.448,15,20C15,20.552,15.448,21,16,21C16.552,21,17,20.552,17,20C17,19.448,16.552,19,16,19ZZM7,18C8.105,18,9,18.895,9,20C9,21.105,8.105,22,7,22C5.895,22,5,21.105,5,20C5,18.895,5.895,18,7,18ZZM7,19C6.448,19,6,19.448,6,20C6,20.552,6.448,21,7,21C7.552,21,8,20.552,8,20C8,19.448,7.552,19,7,19ZZM18,6L4.273,6L6.82,12L15,12C15.328,12,15.619,11.842,15.8,11.598L18.8,7.598L18.801,7.598C18.926,7.431,19,7.224,19,7C19,6.448,18.552,6,18,6ZZM15,13L6.865,13L6.101,14.561L6,15C6,15.552,6.448,16,7,16L18,16L18,17L7,17C5.895,17,5,16.105,5,15C5,14.648,5.091,14.317,5.25,14.03L5.97,12.555L2.338,4L1,4L1,3L3,3L3.849,5L18,5C19.105,5,20,5.895,20,7C20,7.477,19.833,7.916,19.554,8.26L16.639,12.146C16.278,12.662,15.678,13,15,13ZZ" style="fill: rgb(255, 255, 255); fill-opacity: 1;"/></g><g id="strokes-f7989f12-4bbc-801a-8001-da92b41e4b03"><g class="stroke-shape"><path stroke-linejoin="round" rx="0" ry="0" d="M16,18C17.105,18,18,18.895,18,20C18,21.105,17.105,22,16,22C14.895,22,14,21.105,14,20C14,18.895,14.895,18,16,18ZZM16,19C15.448,19,15,19.448,15,20C15,20.552,15.448,21,16,21C16.552,21,17,20.552,17,20C17,19.448,16.552,19,16,19ZZM7,18C8.105,18,9,18.895,9,20C9,21.105,8.105,22,7,22C5.895,22,5,21.105,5,20C5,18.895,5.895,18,7,18ZZM7,19C6.448,19,6,19.448,6,20C6,20.552,6.448,21,7,21C7.552,21,8,20.552,8,20C8,19.448,7.552,19,7,19ZZM18,6L4.273,6L6.82,12L15,12C15.328,12,15.619,11.842,15.8,11.598L18.8,7.598L18.801,7.598C18.926,7.431,19,7.224,19,7C19,6.448,18.552,6,18,6ZZM15,13L6.865,13L6.101,14.561L6,15C6,15.552,6.448,16,7,16L18,16L18,17L7,17C5.895,17,5,16.105,5,15C5,14.648,5.091,14.317,5.25,14.03L5.97,12.555L2.338,4L1,4L1,3L3,3L3.849,5L18,5C19.105,5,20,5.895,20,7C20,7.477,19.833,7.916,19.554,8.26L16.639,12.146C16.278,12.662,15.678,13,15,13ZZ" style="fill: none; stroke-width: 0.2;"/></g></g></g></g></svg>