<svg xmlns:xlink="http://www.w3.org/1999/xlink" width="24" xmlns="http://www.w3.org/2000/svg" height="24" id="screenshot-f7989f12-4bbc-801a-8001-da928dbb266c" viewBox="0 0 24 24" style="-webkit-print-color-adjust: exact;" fill="none" version="1.1"><g xmlns:xlink="http://www.w3.org/1999/xlink" width="24" xml:space="preserve" height="24" id="shape-f7989f12-4bbc-801a-8001-da928dbb266c" baseProfile="full" style="fill: rgb(0, 0, 0);" ry="0" rx="0" version="1.1" enable-background="new 0 0 24.00 24.00"><g id="shape-f7989f12-4bbc-801a-8001-da928dbdb95f"><g id="fills-f7989f12-4bbc-801a-8001-da928dbdb95f"><path stroke-linejoin="round" rx="0" ry="0" d="M10.5,14C14.642,14,18,15.567,18,17.5L18,20L3,20L3,17.5C3,15.567,6.358,14,10.5,14ZZM17,17.5C17,16.119,14.09,15,10.5,15C6.91,15,4,16.119,4,17.5L4,19L17,19L17,17.5ZZM10.5,5C12.433,5,14,6.567,14,8.5C14,10.433,12.433,12,10.5,12C8.567,12,7,10.433,7,8.5C7,6.567,8.567,5,10.5,5ZZM10.5,6C9.119,6,8,7.119,8,8.5C8,9.881,9.119,11,10.5,11C11.881,11,13,9.881,13,8.5C13,7.119,11.881,6,10.5,6ZZM20,16L20,15L21,15L21,16L20,16ZZM20,13L20,7L21,7L21,13L20,13ZZ" style="fill: rgb(0, 0, 0); fill-opacity: 1;"/></g><g id="strokes-f7989f12-4bbc-801a-8001-da928dbdb95f"><g class="stroke-shape"><path stroke-linejoin="round" rx="0" ry="0" d="M10.5,14C14.642,14,18,15.567,18,17.5L18,20L3,20L3,17.5C3,15.567,6.358,14,10.5,14ZZM17,17.5C17,16.119,14.09,15,10.5,15C6.91,15,4,16.119,4,17.5L4,19L17,19L17,17.5ZZM10.5,5C12.433,5,14,6.567,14,8.5C14,10.433,12.433,12,10.5,12C8.567,12,7,10.433,7,8.5C7,6.567,8.567,5,10.5,5ZZM10.5,6C9.119,6,8,7.119,8,8.5C8,9.881,9.119,11,10.5,11C11.881,11,13,9.881,13,8.5C13,7.119,11.881,6,10.5,6ZZM20,16L20,15L21,15L21,16L20,16ZZM20,13L20,7L21,7L21,13L20,13ZZ" style="fill: none; stroke-width: 0.2;"/></g></g></g></g></svg>