<svg xmlns:xlink="http://www.w3.org/1999/xlink" width="24" xmlns="http://www.w3.org/2000/svg" height="24" id="screenshot-f7989f12-4bbc-801a-8001-da931cafa44c" viewBox="0 0 24 24" style="-webkit-print-color-adjust: exact;" fill="none" version="1.1"><g xmlns:xlink="http://www.w3.org/1999/xlink" width="24" xml:space="preserve" height="24" id="shape-f7989f12-4bbc-801a-8001-da931cafa44c" baseProfile="full" style="fill: rgb(0, 0, 0);" ry="0" rx="0" version="1.1" enable-background="new 0 0 24.00 24.00"><g id="shape-f7989f12-4bbc-801a-8001-da931cb1ab1b"><g id="fills-f7989f12-4bbc-801a-8001-da931cb1ab1b"><path stroke-linejoin="round" rx="0" ry="0" d="M6,5L8.5,5C8.5,3.343,9.843,2,11.5,2C13.157,2,14.5,3.343,14.5,5L17,5C18.657,5,20,6.343,20,8L20,19C20,20.657,18.657,22,17,22L6,22C4.343,22,3,20.657,3,19L3,8C3,6.343,4.343,5,6,5ZZM6,6C4.895,6,4,6.895,4,8L4,19C4,20.105,4.895,21,6,21L17,21C18.105,21,19,20.105,19,19L19,8C19,6.895,18.105,6,17,6L16,6L16,9L7,9L7,6L6,6ZZM8,8L15,8L15,6L8,6L8,8ZZM11.5,3C10.395,3,9.5,3.895,9.5,5L13.5,5C13.5,3.895,12.605,3,11.5,3ZZM6,11L17,11L17,12L6,12L6,11ZZM6,14L17,14L17,15L6,15L6,14ZZM6,17L15,17L15,18L6,18L6,17ZZ" style="fill: rgb(0, 0, 0); fill-opacity: 1;"/></g><g id="strokes-f7989f12-4bbc-801a-8001-da931cb1ab1b"><g class="stroke-shape"><path stroke-linejoin="round" rx="0" ry="0" d="M6,5L8.5,5C8.5,3.343,9.843,2,11.5,2C13.157,2,14.5,3.343,14.5,5L17,5C18.657,5,20,6.343,20,8L20,19C20,20.657,18.657,22,17,22L6,22C4.343,22,3,20.657,3,19L3,8C3,6.343,4.343,5,6,5ZZM6,6C4.895,6,4,6.895,4,8L4,19C4,20.105,4.895,21,6,21L17,21C18.105,21,19,20.105,19,19L19,8C19,6.895,18.105,6,17,6L16,6L16,9L7,9L7,6L6,6ZZM8,8L15,8L15,6L8,6L8,8ZZM11.5,3C10.395,3,9.5,3.895,9.5,5L13.5,5C13.5,3.895,12.605,3,11.5,3ZZM6,11L17,11L17,12L6,12L6,11ZZM6,14L17,14L17,15L6,15L6,14ZZM6,17L15,17L15,18L6,18L6,17ZZ" style="fill: none; stroke-width: 0.2;"/></g></g></g></g></svg>