<svg xmlns:xlink="http://www.w3.org/1999/xlink" width="24" xmlns="http://www.w3.org/2000/svg" height="24" id="screenshot-f7989f12-4bbc-801a-8001-da950e96e335" viewBox="0 0 24 24" style="-webkit-print-color-adjust: exact;" fill="none" version="1.1"><g xmlns:xlink="http://www.w3.org/1999/xlink" width="24" xml:space="preserve" height="24" id="shape-f7989f12-4bbc-801a-8001-da950e96e335" baseProfile="full" style="fill: rgb(0, 0, 0);" ry="0" rx="0" version="1.1" enable-background="new 0 0 24.00 24.00"><g id="shape-f7989f12-4bbc-801a-8001-da950e9a2603"><g id="fills-f7989f12-4bbc-801a-8001-da950e9a2603"><path stroke-linejoin="round" rx="0" ry="0" d="M16,8.414L11.5,3.914L4.414,11L6,11L6,12L6,19L9,19L9,13L14,13L14,19L17,19L17,11L18.586,11L17,9.414L17,6L16,6L16,8.414ZZM2,12L11.5,2.5L15,6L15,5L18,5L18,9L21,12L18,12L17.999,19.998L12.999,19.998L12.999,13.998L9.999,13.998L9.999,19.998L4.999,19.998L4.999,12L2,12ZZ" style="fill: rgb(0, 0, 0); fill-opacity: 1;"/></g><g id="strokes-f7989f12-4bbc-801a-8001-da950e9a2603"><g class="stroke-shape"><path stroke-linejoin="round" rx="0" ry="0" d="M16,8.414L11.5,3.914L4.414,11L6,11L6,12L6,19L9,19L9,13L14,13L14,19L17,19L17,11L18.586,11L17,9.414L17,6L16,6L16,8.414ZZM2,12L11.5,2.5L15,6L15,5L18,5L18,9L21,12L18,12L17.999,19.998L12.999,19.998L12.999,13.998L9.999,13.998L9.999,19.998L4.999,19.998L4.999,12L2,12ZZ" style="fill: none; stroke-width: 0.2;"/></g></g></g></g></svg>