<svg xmlns:xlink="http://www.w3.org/1999/xlink" width="19.2" xmlns="http://www.w3.org/2000/svg" height="15.2" id="screenshot-f7989f12-4bbc-801a-8001-da93cd2d8c9e" viewBox="35.9 783.9 19.2 15.2" style="-webkit-print-color-adjust: exact;" fill="none" version="1.1"><g id="shape-f7989f12-4bbc-801a-8001-da93cd2d8c9e"><g id="fills-f7989f12-4bbc-801a-8001-da93cd2d8c9e"><path stroke-linejoin="round" rx="0" ry="0" d="M39,784L52,784C53.657,784,55,785.343,55,787L55,796C55,797.657,53.657,799,52,799L39,799C37.343,799,36,797.657,36,796L36,787C36,785.343,37.343,784,39,784ZZM39,785C38.512,785,38.064,785.175,37.717,785.466L45.5,790.52L53.283,785.466C52.936,785.175,52.488,785,52,785L39,785ZZM45.5,791.712L37.134,786.279C37.047,786.503,37,786.746,37,787L37,796C37,797.105,37.895,798,39,798L52,798C53.105,798,54,797.105,54,796L54,787C54,786.746,53.953,786.503,53.866,786.279L45.5,791.712ZZ" style="fill: rgb(0, 0, 0); fill-opacity: 1;"/></g><g id="strokes-f7989f12-4bbc-801a-8001-da93cd2d8c9e"><g class="stroke-shape"><path stroke-linejoin="round" rx="0" ry="0" d="M39,784L52,784C53.657,784,55,785.343,55,787L55,796C55,797.657,53.657,799,52,799L39,799C37.343,799,36,797.657,36,796L36,787C36,785.343,37.343,784,39,784ZZM39,785C38.512,785,38.064,785.175,37.717,785.466L45.5,790.52L53.283,785.466C52.936,785.175,52.488,785,52,785L39,785ZZM45.5,791.712L37.134,786.279C37.047,786.503,37,786.746,37,787L37,796C37,797.105,37.895,798,39,798L52,798C53.105,798,54,797.105,54,796L54,787C54,786.746,53.953,786.503,53.866,786.279L45.5,791.712ZZ" style="fill: none; stroke-width: 0.2;"/></g></g></g></svg>