<svg xmlns:xlink="http://www.w3.org/1999/xlink" width="24" xmlns="http://www.w3.org/2000/svg" height="24" id="screenshot-f7989f12-4bbc-801a-8001-da93ebc6f879" viewBox="0 0 24 24" style="-webkit-print-color-adjust: exact;" fill="none" version="1.1"><g xmlns:xlink="http://www.w3.org/1999/xlink" width="24" xml:space="preserve" height="24" id="shape-f7989f12-4bbc-801a-8001-da93ebc6f879" baseProfile="full" style="fill: rgb(0, 0, 0);" ry="0" rx="0" version="1.1" enable-background="new 0 0 24.00 24.00"><g id="shape-f7989f12-4bbc-801a-8001-da93ebca624b"><g id="fills-f7989f12-4bbc-801a-8001-da93ebca624b"><path stroke-linejoin="round" rx="0" ry="0" d="M11.5,7C12.881,7,14,8.119,14,9.5C14,10.881,12.881,12,11.5,12C10.119,12,9,10.881,9,9.5C9,8.119,10.119,7,11.5,7ZZM11.5,8C10.672,8,10,8.672,10,9.5C10,10.328,10.672,11,11.5,11C12.328,11,13,10.328,13,9.5C13,8.672,12.328,8,11.5,8ZZM6.8,12.357L11.5,20.087L16.2,12.357L16.2,12.358C16.708,11.525,17,10.547,17,9.5C17,6.462,14.538,4,11.5,4C8.462,4,6,6.462,6,9.5C6,10.547,6.292,11.525,6.8,12.357ZL6.8,12.357ZZM17.054,12.877L11.5,22.012L5.946,12.877L5.945,12.877C5.345,11.893,5,10.737,5,9.5C5,5.91,7.91,3,11.5,3C15.09,3,18,5.91,18,9.5C18,10.737,17.655,11.893,17.054,12.877ZL17.054,12.877ZZ" style="fill: rgb(0, 0, 0); fill-opacity: 1;"/></g><g id="strokes-f7989f12-4bbc-801a-8001-da93ebca624b"><g class="stroke-shape"><path stroke-linejoin="round" rx="0" ry="0" d="M11.5,7C12.881,7,14,8.119,14,9.5C14,10.881,12.881,12,11.5,12C10.119,12,9,10.881,9,9.5C9,8.119,10.119,7,11.5,7ZZM11.5,8C10.672,8,10,8.672,10,9.5C10,10.328,10.672,11,11.5,11C12.328,11,13,10.328,13,9.5C13,8.672,12.328,8,11.5,8ZZM6.8,12.357L11.5,20.087L16.2,12.357L16.2,12.358C16.708,11.525,17,10.547,17,9.5C17,6.462,14.538,4,11.5,4C8.462,4,6,6.462,6,9.5C6,10.547,6.292,11.525,6.8,12.357ZL6.8,12.357ZZM17.054,12.877L11.5,22.012L5.946,12.877L5.945,12.877C5.345,11.893,5,10.737,5,9.5C5,5.91,7.91,3,11.5,3C15.09,3,18,5.91,18,9.5C18,10.737,17.655,11.893,17.054,12.877ZL17.054,12.877ZZ" style="fill: none; stroke-width: 0.2;"/></g></g></g></g></svg>