<svg xmlns:xlink="http://www.w3.org/1999/xlink" width="24" xmlns="http://www.w3.org/2000/svg" height="24" id="screenshot-f7989f12-4bbc-801a-8001-da9298d97d3c" viewBox="0 0 24 24" style="-webkit-print-color-adjust: exact;" fill="none" version="1.1"><g xmlns:xlink="http://www.w3.org/1999/xlink" width="24" xml:space="preserve" height="24" id="shape-f7989f12-4bbc-801a-8001-da9298d97d3c" baseProfile="full" style="fill: rgb(0, 0, 0);" ry="0" rx="0" version="1.1" enable-background="new 0 0 24.00 24.00"><g id="shape-f7989f12-4bbc-801a-8001-da9298dab30f"><g id="fills-f7989f12-4bbc-801a-8001-da9298dab30f"><path stroke-linejoin="round" rx="0" ry="0" d="M11.5,14C15.642,14,19,15.567,19,17.5L19,20L4,20L4,17.5C4,15.567,7.358,14,11.5,14ZZM18,17.5C18,16.119,15.09,15,11.5,15C7.91,15,5,16.119,5,17.5L5,19L18,19L18,17.5ZZM11.5,5C13.433,5,15,6.567,15,8.5C15,10.433,13.433,12,11.5,12C9.567,12,8,10.433,8,8.5C8,6.567,9.567,5,11.5,5ZZM11.5,6C10.119,6,9,7.119,9,8.5C9,9.881,10.119,11,11.5,11C12.881,11,14,9.881,14,8.5C14,7.119,12.881,6,11.5,6ZZ" style="fill: rgb(0, 0, 0); fill-opacity: 1;"/></g><g id="strokes-f7989f12-4bbc-801a-8001-da9298dab30f"><g class="stroke-shape"><path stroke-linejoin="round" rx="0" ry="0" d="M11.5,14C15.642,14,19,15.567,19,17.5L19,20L4,20L4,17.5C4,15.567,7.358,14,11.5,14ZZM18,17.5C18,16.119,15.09,15,11.5,15C7.91,15,5,16.119,5,17.5L5,19L18,19L18,17.5ZZM11.5,5C13.433,5,15,6.567,15,8.5C15,10.433,13.433,12,11.5,12C9.567,12,8,10.433,8,8.5C8,6.567,9.567,5,11.5,5ZZM11.5,6C10.119,6,9,7.119,9,8.5C9,9.881,10.119,11,11.5,11C12.881,11,14,9.881,14,8.5C14,7.119,12.881,6,11.5,6ZZ" style="fill: none; stroke-width: 0.2;"/></g></g></g></g></svg>