<svg xmlns:xlink="http://www.w3.org/1999/xlink" width="24" xmlns="http://www.w3.org/2000/svg" height="24" id="screenshot-f7989f12-4bbc-801a-8001-da95e2a832df" viewBox="-0 -0 24 24" style="-webkit-print-color-adjust: exact;" fill="none" version="1.1"><g id="shape-f7989f12-4bbc-801a-8001-da95e2a832df" class="icon" rx="0" ry="0" style="fill: rgb(0, 0, 0);"><g id="shape-f7989f12-4bbc-801a-8001-da95e2ae3919"><g id="fills-f7989f12-4bbc-801a-8001-da95e2ae3919"><path rx="0" ry="0" d="M11.998,8.999C10.345,8.999,8.996,10.347,8.996,12C8.996,13.653,10.345,15.001,11.998,15.001C13.65,15.001,14.999,13.653,14.999,12C14.999,10.347,13.65,8.999,11.998,8.999ZZM20.999,12C20.999,10.757,21.01,9.526,20.94,8.285C20.871,6.844,20.542,5.565,19.488,4.511C18.432,3.455,17.156,3.129,15.715,3.059C14.472,2.989,13.24,3.001,12,3.001C10.757,3.001,9.525,2.989,8.285,3.059C6.844,3.129,5.565,3.458,4.511,4.511C3.455,5.567,3.129,6.844,3.059,8.285C2.989,9.528,3.001,10.759,3.001,12C3.001,13.241,2.989,14.474,3.059,15.715C3.129,17.156,3.458,18.435,4.511,19.489C5.567,20.545,6.844,20.871,8.285,20.941C9.528,21.011,10.759,20.999,12,20.999C13.243,20.999,14.474,21.011,15.715,20.941C17.156,20.871,18.435,20.542,19.488,19.489C20.544,18.433,20.871,17.156,20.94,15.715C21.013,14.474,20.999,13.243,20.999,12ZZM11.998,16.618C9.442,16.618,7.38,14.555,7.38,12C7.38,9.445,9.442,7.382,11.998,7.382C14.553,7.382,16.615,9.445,16.615,12C16.615,14.555,14.553,16.618,11.998,16.618ZZM16.804,8.271C16.208,8.271,15.726,7.79,15.726,7.193C15.726,6.596,16.208,6.115,16.804,6.115C17.401,6.115,17.883,6.596,17.883,7.193C17.883,7.479,17.77,7.754,17.567,7.956C17.365,8.158,17.091,8.272,16.804,8.271ZZ"/></g></g></g></svg>