<svg xmlns:xlink="http://www.w3.org/1999/xlink" width="46" xmlns="http://www.w3.org/2000/svg" height="51" id="screenshot-f7989f12-4bbc-801a-8001-da85c7d797a8" viewBox="0 0 46 51" style="-webkit-print-color-adjust: exact;" fill="none" version="1.1"><g xmlns:xlink="http://www.w3.org/1999/xlink" width="24" xml:space="preserve" height="24" id="shape-f7989f12-4bbc-801a-8001-da85c7d797a8" baseProfile="full" style="fill: rgb(0, 0, 0);" ry="0" rx="0" version="1.1" enable-background="new 0 0 24.00 24.00"><g id="shape-f7989f12-4bbc-801a-8001-da85c7da8558"><g id="fills-f7989f12-4bbc-801a-8001-da85c7da8558"><rect width="46" height="51" x="0" transform="matrix(1,0,0,1,0,0)" style="fill: none;" ry="0" fill="none" rx="0" y="0"/></g></g><g id="shape-f7989f12-4bbc-801a-8001-da85c7dd5a8a"><g id="fills-f7989f12-4bbc-801a-8001-da85c7dd5a8a"><path stroke-linejoin="round" rx="0" ry="0" d="M6,17.091L6,15L39,15L39,17.091L6,17.091ZZM39,25.455L39,27.545L6,27.545L6,25.455L39,25.455ZZM6,35.909L39,35.909L39,38L6,38L6,35.909ZZ" style="fill: rgb(0, 0, 0); fill-opacity: 1;"/></g><g id="strokes-f7989f12-4bbc-801a-8001-da85c7dd5a8a"><g class="stroke-shape"><path stroke-linejoin="round" rx="0" ry="0" d="M6,17.091L6,15L39,15L39,17.091L6,17.091ZZM39,25.455L39,27.545L6,27.545L6,25.455L39,25.455ZZM6,35.909L39,35.909L39,38L6,38L6,35.909ZZ" style="fill: none; stroke-width: 0.2;"/></g></g></g></g></svg>