<svg xmlns:xlink="http://www.w3.org/1999/xlink" width="24" xmlns="http://www.w3.org/2000/svg" height="24" id="screenshot-f7989f12-4bbc-801a-8001-da9591126c33" viewBox="-0 -0 24 24" style="-webkit-print-color-adjust: exact;" fill="none" version="1.1"><g id="shape-f7989f12-4bbc-801a-8001-da9591126c33" class="icon" rx="0" ry="0" style="fill: rgb(0, 0, 0);"><g id="shape-f7989f12-4bbc-801a-8001-da959114dfbe"><g id="fills-f7989f12-4bbc-801a-8001-da959114dfbe"><path rx="0" ry="0" d="M22.2,3L3.8,3C3.357,3,3,3.357,3,3.8L3,22.2C3,22.642,3.358,23,3.8,23L22.2,23C22.643,23,23,22.642,23,22.2L23,3.8C23,3.358,22.642,3,22.2,3ZZM19.89,8.837L18.292,8.837C17.04,8.837,16.797,9.432,16.797,10.307L16.797,12.235L19.787,12.235L19.398,15.252L16.798,15.252L16.798,23L13.68,23L13.68,15.255L11.073,15.255L11.072,12.235L13.68,12.235L13.68,10.01C13.68,7.427,15.257,6.02,17.562,6.02C18.667,6.02,19.615,6.102,19.892,6.14L19.89,8.837ZZ"/></g></g></g></svg>