<svg xmlns:xlink="http://www.w3.org/1999/xlink" width="24" xmlns="http://www.w3.org/2000/svg" height="24" id="screenshot-f7989f12-4bbc-801a-8001-da95c6a74ae5" viewBox="-0 -0 24 24" style="-webkit-print-color-adjust: exact;" fill="none" version="1.1"><g id="shape-f7989f12-4bbc-801a-8001-da95c6a74ae5" class="icon" rx="0" ry="0" style="fill: rgb(0, 0, 0);"><g id="shape-f7989f12-4bbc-801a-8001-da95c6ad2fe6"><g id="fills-f7989f12-4bbc-801a-8001-da95c6ad2fe6"><path rx="0" ry="0" d="M11.5,1C5.702,1,1,5.702,1,11.5C1,17.298,5.702,22,11.5,22C17.298,22,22,17.298,22,11.5C22,5.702,17.298,1,11.5,1ZZM16.546,8.915C16.553,9.025,16.553,9.14,16.553,9.252C16.553,12.693,13.933,16.656,9.145,16.656C7.668,16.656,6.299,16.227,5.146,15.489C5.357,15.512,5.559,15.522,5.774,15.522C6.993,15.522,8.113,15.109,9.006,14.411C7.863,14.387,6.902,13.637,6.573,12.606C6.974,12.665,7.335,12.665,7.748,12.559C6.533,12.313,5.662,11.244,5.664,10.005L5.664,9.972C6.009,10.166,6.414,10.286,6.838,10.302C6.114,9.82,5.679,9.007,5.678,8.137C5.678,7.652,5.805,7.209,6.032,6.824C7.354,8.452,9.305,9.441,11.399,9.545C11.031,7.776,12.353,6.344,13.942,6.344C14.692,6.344,15.367,6.658,15.843,7.164C16.431,7.054,16.994,6.834,17.495,6.538C17.301,7.141,16.893,7.649,16.352,7.97C16.877,7.914,17.383,7.769,17.852,7.565C17.498,8.085,17.055,8.547,16.546,8.915ZZ"/></g></g></g></svg>